<svg width="40" height="40" viewBox="0 0 40 40" fill="none" xmlns="http://www.w3.org/2000/svg">
<path d="M20 0.5C30.7696 0.5 39.5 9.23045 39.5 20C39.5 30.7696 30.7696 39.5 20 39.5C9.23045 39.5 0.5 30.7696 0.5 20C0.5 9.23045 9.23045 0.5 20 0.5Z" fill="white"/>
<path d="M20 0.5C30.7696 0.5 39.5 9.23045 39.5 20C39.5 30.7696 30.7696 39.5 20 39.5C9.23045 39.5 0.5 30.7696 0.5 20C0.5 9.23045 9.23045 0.5 20 0.5Z" stroke="#F5F5F5"/>
<path d="M24 17.5C24 13.634 22.2091 10 20 10C17.7909 10 16 13.634 16 17.5M16 15H24C25.8856 15 26.8284 15 27.4142 15.5858C28 16.1716 28 17.1144 28 19V23C28 26.2998 28 27.9497 26.9749 28.9749C25.9497 30 24.2998 30 21 30H19C15.7002 30 14.0502 30 13.0251 28.9749C12 27.9497 12 26.2998 12 23V19C12 17.1144 12 16.1716 12.5858 15.5858C13.1716 15 14.1144 15 16 15Z" stroke="black" stroke-width="1.5" stroke-linecap="round" stroke-linejoin="round"/>
</svg>
