<svg width="40" height="40" viewBox="0 0 40 40" fill="none" xmlns="http://www.w3.org/2000/svg">
<path d="M20 0.5C30.7696 0.5 39.5 9.23045 39.5 20C39.5 30.7696 30.7696 39.5 20 39.5C9.23045 39.5 0.5 30.7696 0.5 20C0.5 9.23045 9.23045 0.5 20 0.5Z" fill="white"/>
<path d="M20 0.5C30.7696 0.5 39.5 9.23045 39.5 20C39.5 30.7696 30.7696 39.5 20 39.5C9.23045 39.5 0.5 30.7696 0.5 20C0.5 9.23045 9.23045 0.5 20 0.5Z" stroke="#F5F5F5"/>
<path d="M18.4112 28.4677C15.5899 26.358 10.0005 21.5348 10.0005 17.1944C10.0005 14.3256 12.1057 12 15.0005 12C16.5005 12 18.0005 12.5 20.0005 14.5C22.0005 12.5 23.5005 12 25.0005 12C27.8952 12 30.0005 14.3256 30.0005 17.1944C30.0005 21.5348 24.4111 26.358 21.5898 28.4677C20.6404 29.1776 19.3606 29.1776 18.4112 28.4677Z" stroke="black" stroke-width="1.75" stroke-linecap="round" stroke-linejoin="round"/>
</svg>
