<svg width="40" height="40" viewBox="0 0 40 40" fill="none" xmlns="http://www.w3.org/2000/svg">
<path d="M20 0.5C30.7696 0.5 39.5 9.23045 39.5 20C39.5 30.7696 30.7696 39.5 20 39.5C9.23045 39.5 0.5 30.7696 0.5 20C0.5 9.23045 9.23045 0.5 20 0.5Z" fill="white"/>
<path d="M20 0.5C30.7696 0.5 39.5 9.23045 39.5 20C39.5 30.7696 30.7696 39.5 20 39.5C9.23045 39.5 0.5 30.7696 0.5 20C0.5 9.23045 9.23045 0.5 20 0.5Z" stroke="#F5F5F5"/>
<path d="M23.0002 25C22.2007 25.6224 21.1504 26 20.0002 26C18.8499 26 17.7997 25.6224 17.0002 25M11 19.9896V22.5C11 25.7998 11 27.4497 12.0251 28.4749C13.0502 29.5 14.7002 29.5 18 29.5H22C25.2998 29.5 26.9497 29.5 27.9749 28.4749C29 27.4497 29 25.7998 29 22.5V19.9896C29 18.3083 29 17.4677 28.6441 16.7401C28.2882 16.0124 27.6247 15.4963 26.2976 14.4641L24.2976 12.9085C22.2331 11.3028 21.2009 10.5 20 10.5C18.7991 10.5 17.7669 11.3028 15.7024 12.9085L13.7024 14.4641C12.3753 15.4963 11.7118 16.0124 11.3559 16.7401C11 17.4677 11 18.3083 11 19.9896Z" stroke="black" stroke-width="1.5" stroke-linecap="round" stroke-linejoin="round"/>
</svg>
