<svg width="40" height="40" viewBox="0 0 40 40" fill="none" xmlns="http://www.w3.org/2000/svg">
<path d="M20 0.5C30.7696 0.5 39.5 9.23045 39.5 20C39.5 30.7696 30.7696 39.5 20 39.5C9.23045 39.5 0.5 30.7696 0.5 20C0.5 9.23045 9.23045 0.5 20 0.5Z" fill="white"/>
<path d="M20 0.5C30.7696 0.5 39.5 9.23045 39.5 20C39.5 30.7696 30.7696 39.5 20 39.5C9.23045 39.5 0.5 30.7696 0.5 20C0.5 9.23045 9.23045 0.5 20 0.5Z" stroke="#F5F5F5"/>
<path d="M11.8889 17.6629C12.3933 18 13.0955 18 14.5 18C15.9045 18 16.6067 18 17.1111 17.6629C17.3295 17.517 17.517 17.3295 17.6629 17.1111C18 16.6067 18 15.9045 18 14.5C18 13.0955 18 12.3933 17.6629 11.8889C17.517 11.6705 17.3295 11.483 17.1111 11.3371C16.6067 11 15.9045 11 14.5 11C13.0955 11 12.3933 11 11.8889 11.3371C11.6705 11.483 11.483 11.6705 11.3371 11.8889C11 12.3933 11 13.0955 11 14.5C11 15.9045 11 16.6067 11.3371 17.1111C11.483 17.3295 11.6705 17.517 11.8889 17.6629Z" stroke="black" stroke-width="1.5" stroke-linejoin="round"/>
<path d="M22.8888 17.6629C23.3933 18 24.0955 18 25.5 18C26.9044 18 27.6067 18 28.1111 17.6629C28.3295 17.517 28.517 17.3295 28.6629 17.1111C29 16.6067 29 15.9045 29 14.5C29 13.0955 29 12.3933 28.6629 11.8889C28.517 11.6705 28.3295 11.483 28.1111 11.3371C27.6067 11 26.9044 11 25.5 11C24.0955 11 23.3933 11 22.8888 11.3371C22.6705 11.483 22.483 11.6705 22.337 11.8889C22 12.3933 22 13.0955 22 14.5C22 15.9045 22 16.6067 22.337 17.1111C22.483 17.3295 22.6705 17.517 22.8888 17.6629Z" stroke="black" stroke-width="1.5" stroke-linejoin="round"/>
<path d="M11.8889 28.6629C12.3933 29 13.0955 29 14.5 29C15.9045 29 16.6067 29 17.1111 28.6629C17.3295 28.517 17.517 28.3295 17.6629 28.1111C18 27.6067 18 26.9045 18 25.5C18 24.0955 18 23.3933 17.6629 22.8889C17.517 22.6705 17.3295 22.483 17.1111 22.3371C16.6067 22 15.9045 22 14.5 22C13.0955 22 12.3933 22 11.8889 22.3371C11.6705 22.483 11.483 22.6705 11.3371 22.8889C11 23.3933 11 24.0955 11 25.5C11 26.9045 11 27.6067 11.3371 28.1111C11.483 28.3295 11.6705 28.517 11.8889 28.6629Z" stroke="black" stroke-width="1.5" stroke-linejoin="round"/>
<path d="M22.8888 28.6629C23.3933 29 24.0955 29 25.5 29C26.9044 29 27.6067 29 28.1111 28.6629C28.3295 28.517 28.517 28.3295 28.6629 28.1111C29 27.6067 29 26.9045 29 25.5C29 24.0955 29 23.3933 28.6629 22.8889C28.517 22.6705 28.3295 22.483 28.1111 22.3371C27.6067 22 26.9044 22 25.5 22C24.0955 22 23.3933 22 22.8888 22.3371C22.6705 22.483 22.483 22.6705 22.337 22.8889C22 23.3933 22 24.0955 22 25.5C22 26.9045 22 27.6067 22.337 28.1111C22.483 28.3295 22.6705 28.517 22.8888 28.6629Z" stroke="black" stroke-width="1.5" stroke-linejoin="round"/>
</svg>
